# xmcd
#
# Track frame offsets:
#	150
#	9593
#	25518
#	37855
#	50416
#	71267
#	83945
#	101836
#	117824
#	133563
#	148781
#	164264
#
# Disc length: 2348 seconds
#
# Revision: 1
# Processed by: cddbd v1.5.2PL0 Copyright (c) Steve Scherf et al.
# Submitted via: audiograbber 1.83.01
#
DISCID=93092a0c
DTITLE=Noel Cassidy - The Ultimate Collection 2008
DYEAR=2008
DGENRE=
TTITLE0=Just As Long As You Love Me
TTITLE1=It's You, It's You, It's You
TTITLE2=Mamas Don't Let Your Babies Grow Up To Be Cowboys
TTITLE3=Move To Town In The Fall
TTITLE4=Seven Spanish Angels
TTITLE5=North To Alaska
TTITLE6=Lonesome Guitar
TTITLE7=Good Hearted Woman
TTITLE8=Donegal Shore
TTITLE9=The Gambler
TTITLE10=Rose Coloured Glasses
TTITLE11=Folsom Prison Blues
EXTD=
EXTT0=
EXTT1=
EXTT2=
EXTT3=
EXTT4=
EXTT5=
EXTT6=
EXTT7=
EXTT8=
EXTT9=
EXTT10=
EXTT11=
PLAYORDER=
